# xmcd
#
# Track frame offsets:
#	182
#	11605
#	23302
#	33865
#	49102
#	63587
#	74775
#	89125
#	102680
#	117890
#	132122
#	142122
#	155187
#	169760
#	184282
#	201010
#	215385
#	228512
#	243762
#	254627
#	269710
#	281347
#	292230
#	303040
#	316350
#	329195
#	346127
#
# Disc length: 4772 seconds
#
# Revision: 1
# Processed by: cddbd v1.5PL3 Copyright (c) Steve Scherf et al.
# Submitted via: audiograbber 1.80
#
DISCID=ab12a21b
DTITLE=bobby barnett - American Heroes and Western Legends 
DYEAR=1900
DGENRE=
TTITLE0=Oklahoma's OK! 
TTITLE1=The Hanging Of Judge Parker 
TTITLE2=The Ballad Of Belle Starr 
TTITLE3=Cherokee Bill 
TTITLE4=Bill Doolin 
TTITLE5=The Ballad Of Pretty Boy Floyd 
TTITLE6=Sequoyah 
TTITLE7=Captain David L. Payne 
TTITLE8=The Iron Horse 
TTITLE9=The Gunfight At The O.K, Corral 
TTITLE10=Wyatt Earp 
TTITLE11=The Ballad Of Doc Holliday 
TTITLE12=Bat Masterson 
TTITLE13=The Story Of The Dalton Gang 
TTITLE14=The Three Guardsmen 
TTITLE15=Run Of '89 
TTITLE16=The Ballad Of Geronimo 
TTITLE17=Chief Crazy Horse 
TTITLE18=Pawnee Bill 
TTITLE19=Bill Pickett Of The 101 
TTITLE20=The Lost Dutchman Mine 
TTITLE21=Tombstone, Arizona 
TTITLE22=Tom Mix 
TTITLE23=Salute To Will Rogers 
TTITLE24=Jim Thorpe 
TTITLE25=The Cowboy Hall Of Fame 
TTITLE26=Tribute To Woody Guthrie 
EXTD=
EXTT0=
EXTT1=
EXTT2=
EXTT3=
EXTT4=
EXTT5=
EXTT6=
EXTT7=
EXTT8=
EXTT9=
EXTT10=
EXTT11=
EXTT12=
EXTT13=
EXTT14=
EXTT15=
EXTT16=
EXTT17=
EXTT18=
EXTT19=
EXTT20=
EXTT21=
EXTT22=
EXTT23=
EXTT24=
EXTT25=
EXTT26=
PLAYORDER=
